<mxfile host="app.diagrams.net" agent="Mozilla/5.0 (Macintosh; Intel Mac OS X 10_15_7) AppleWebKit/605.1.15 (KHTML, like Gecko) Version/18.0 Safari/605.1.15" version="24.7.17">
  <diagram id="prtHgNgQTEPvFCAcTncT" name="Page-1">
    <mxGraphModel dx="1194" dy="797" grid="1" gridSize="10" guides="1" tooltips="1" connect="1" arrows="1" fold="1" page="1" pageScale="1" pageWidth="827" pageHeight="1169" math="0" shadow="0">
      <root>
        <mxCell id="0" />
        <mxCell id="1" parent="0" />
        <mxCell id="YPZLDJ1wre2h32vTuNjH-23" value="&lt;font style=&quot;font-size: 20px;&quot;&gt;HBnB Evolution&lt;/font&gt;" style="shape=folder;fontStyle=1;spacingTop=10;tabWidth=40;tabHeight=14;tabPosition=left;html=1;whiteSpace=wrap;strokeColor=#000000;fontColor=#EEEEEE;fillColor=#09555B;strokeWidth=3;" vertex="1" parent="1">
          <mxGeometry x="250" y="40" width="430" height="50" as="geometry" />
        </mxCell>
        <mxCell id="YPZLDJ1wre2h32vTuNjH-24" value="" style="html=1;whiteSpace=wrap;strokeWidth=3;" vertex="1" parent="1">
          <mxGeometry x="250" y="90" width="430" height="430" as="geometry" />
        </mxCell>
        <mxCell id="YPZLDJ1wre2h32vTuNjH-26" value="&lt;font style=&quot;font-size: 16px;&quot;&gt;&quot; Interface &quot; - Presentation Layer&lt;/font&gt;" style="html=1;whiteSpace=wrap;strokeColor=#000000;fontColor=#EEEEEE;fillColor=#09555B;" vertex="1" parent="1">
          <mxGeometry x="260" y="100" width="410" height="30" as="geometry" />
        </mxCell>
        <mxCell id="YPZLDJ1wre2h32vTuNjH-27" value="&lt;font style=&quot;font-size: 16px;&quot;&gt;Business Logic Layer&lt;/font&gt;" style="html=1;whiteSpace=wrap;strokeColor=#000000;fontColor=#EEEEEE;fillColor=#09555B;" vertex="1" parent="1">
          <mxGeometry x="260" y="250" width="410" height="30" as="geometry" />
        </mxCell>
        <mxCell id="YPZLDJ1wre2h32vTuNjH-28" value="&lt;font style=&quot;font-size: 16px;&quot;&gt;Persistence Layer&amp;nbsp;&lt;/font&gt;" style="html=1;whiteSpace=wrap;strokeColor=#000000;fontColor=#EEEEEE;fillColor=#09555B;" vertex="1" parent="1">
          <mxGeometry x="260" y="430" width="410" height="30" as="geometry" />
        </mxCell>
        <mxCell id="YPZLDJ1wre2h32vTuNjH-30" value="&lt;font style=&quot;font-size: 14px;&quot;&gt;Object&lt;/font&gt;" style="html=1;whiteSpace=wrap;align=left;" vertex="1" parent="1">
          <mxGeometry x="260" y="130" width="410" height="50" as="geometry" />
        </mxCell>
        <mxCell id="YPZLDJ1wre2h32vTuNjH-31" value="&lt;font style=&quot;font-size: 14px;&quot;&gt;+User&lt;/font&gt;&lt;div style=&quot;font-size: 14px;&quot;&gt;&lt;font style=&quot;font-size: 14px;&quot;&gt;+Place&lt;/font&gt;&lt;/div&gt;&lt;div style=&quot;font-size: 14px;&quot;&gt;&lt;font style=&quot;font-size: 14px;&quot;&gt;+Review&lt;/font&gt;&lt;/div&gt;&lt;div style=&quot;font-size: 14px;&quot;&gt;&lt;font style=&quot;font-size: 14px;&quot;&gt;+Amenity&lt;/font&gt;&lt;/div&gt;" style="html=1;whiteSpace=wrap;align=left;" vertex="1" parent="1">
          <mxGeometry x="260" y="280" width="410" height="90" as="geometry" />
        </mxCell>
        <mxCell id="YPZLDJ1wre2h32vTuNjH-32" value="&lt;font style=&quot;font-size: 14px;&quot;&gt;+DataBaseAccess&lt;/font&gt;" style="html=1;whiteSpace=wrap;align=left;" vertex="1" parent="1">
          <mxGeometry x="260" y="460" width="410" height="50" as="geometry" />
        </mxCell>
        <mxCell id="YPZLDJ1wre2h32vTuNjH-33" value="" style="endArrow=classic;html=1;rounded=0;strokeColor=#000000;entryX=0.5;entryY=0;entryDx=0;entryDy=0;exitX=0.5;exitY=1;exitDx=0;exitDy=0;strokeWidth=3;" edge="1" parent="1" source="YPZLDJ1wre2h32vTuNjH-30" target="YPZLDJ1wre2h32vTuNjH-27">
          <mxGeometry width="50" height="50" relative="1" as="geometry">
            <mxPoint x="460.0046153846155" y="180" as="sourcePoint" />
            <mxPoint x="504.62" y="200" as="targetPoint" />
          </mxGeometry>
        </mxCell>
        <mxCell id="YPZLDJ1wre2h32vTuNjH-34" value="" style="endArrow=classic;html=1;rounded=0;strokeColor=#000000;entryX=0.5;entryY=0;entryDx=0;entryDy=0;exitX=0.5;exitY=1;exitDx=0;exitDy=0;strokeWidth=3;" edge="1" parent="1">
          <mxGeometry width="50" height="50" relative="1" as="geometry">
            <mxPoint x="460" y="370" as="sourcePoint" />
            <mxPoint x="460" y="430" as="targetPoint" />
          </mxGeometry>
        </mxCell>
        <mxCell id="YPZLDJ1wre2h32vTuNjH-35" value="Data Base&amp;nbsp;&lt;div&gt;Operations&lt;/div&gt;" style="text;html=1;align=center;verticalAlign=middle;whiteSpace=wrap;rounded=0;fontColor=#000000;" vertex="1" parent="1">
          <mxGeometry x="480" y="380" width="60" height="30" as="geometry" />
        </mxCell>
        <mxCell id="YPZLDJ1wre2h32vTuNjH-36" value="&lt;font color=&quot;#000000&quot;&gt;Facade Pattern&lt;/font&gt;" style="text;html=1;align=center;verticalAlign=middle;whiteSpace=wrap;rounded=0;fontColor=#EEEEEE;" vertex="1" parent="1">
          <mxGeometry x="480" y="190" width="60" height="30" as="geometry" />
        </mxCell>
      </root>
    </mxGraphModel>
  </diagram>
</mxfile>
